<?xml version="1.0" encoding="UTF-8" standalone="no"?>
<!DOCTYPE svg PUBLIC "-//W3C//DTD SVG 1.1//EN" "http://www.w3.org/Graphics/SVG/1.1/DTD/svg11.dtd">
<svg xmlns="http://www.w3.org/2000/svg" version="1.1" viewBox="0.00 0.00 165.00 165.00">
<g stroke-width="2.00" fill="none" stroke-linecap="butt">
<path stroke="#3b3b3c" stroke-opacity="0.996" vector-effect="non-scaling-stroke" d="
  M 96.57 101.21
  Q 94.51 99.21 91.88 98.15
  C 89.86 97.32 88.57 96.56 87.72 94.85
  Q 85.58 90.57 83.19 83.32
  C 79.86 73.17 75.23 61.08 71.88 51.33
  Q 65.02 31.35 55.75 6.06
  A 2.46 2.45 -10.0 0 0 53.44 4.45
  L 42.54 4.45
  A 1.31 1.30 -79.6 0 0 41.32 5.30
  Q 34.57 23.39 31.13 33.53
  Q 29.40 38.62 28.81 40.03
  C 26.49 45.66 25.50 49.79 23.21 56.29
  Q 21.57 60.96 19.83 65.38
  Q 19.58 66.02 16.76 74.59
  Q 12.99 86.08 10.26 92.90
  Q 8.36 97.61 2.83 98.95
  A 1.39 1.38 -7.0 0 0 1.77 100.29
  L 1.77 103.96
  A 1.05 1.04 90.0 0 0 2.81 105.01
  L 32.73 105.01
  A 0.89 0.88 90.0 0 0 33.61 104.12
  L 33.61 100.57
  A 1.43 1.42 0.6 0 0 32.21 99.15
  Q 28.27 99.08 25.94 97.85
  Q 24.88 97.29 23.57 94.78"
/>
<path stroke="#3b3b3c" stroke-opacity="0.996" vector-effect="non-scaling-stroke" d="
  M 46.23 26.85
  L 44.52 26.40
  A 0.67 0.67 0.0 0 0 43.69 26.94
  C 43.23 29.59 42.90 31.98 41.97 34.71
  Q 40.17 39.97 34.87 55.38
  Q 32.72 61.63 32.61 64.63
  A 0.77 0.76 13.0 0 0 33.07 65.36
  Q 34.98 66.18 37.04 66.24
  Q 46.89 66.51 57.12 65.79
  A 0.67 0.66 -65.9 0 0 57.43 65.67
  Q 58.07 65.17 57.77 64.05"
/>
<path stroke="#3b3b3c" stroke-opacity="0.996" vector-effect="non-scaling-stroke" d="
  M 142.51 99.22
  Q 143.82 98.50 144.60 99.71
  Q 147.64 104.41 152.45 104.79
  C 156.65 105.11 161.00 105.58 163.46 102.93
  Q 164.66 101.65 163.86 99.28
  A 1.04 1.03 -89.5 0 0 163.25 98.65
  C 161.21 97.84 158.25 98.06 156.76 96.72
  C 153.49 93.80 153.58 88.97 153.76 84.76
  C 154.06 77.68 153.92 73.24 154.00 61.80
  C 154.02 59.04 153.36 55.19 152.69 52.83
  C 151.20 47.64 148.12 45.25 143.20 42.58
  Q 141.13 41.46 136.76 41.07
  C 127.98 40.29 118.12 40.21 112.02 45.39
  Q 107.06 49.60 106.67 55.65
  A 4.02 4.01 -73.3 0 0 108.68 59.39
  L 112.32 61.50
  A 0.82 0.79 -35.0 0 0 112.88 61.59
  Q 116.13 60.96 117.53 59.07
  A 3.08 3.07 -18.3 0 0 117.97 58.20
  Q 119.53 53.33 121.07 51.54
  C 125.01 46.97 131.89 47.97 137.13 50.07
  A 1.42 1.38 84.2 0 1 137.82 50.65
  Q 140.60 55.14 140.03 60.44"
/>
<path stroke="#3b3b3c" stroke-opacity="0.996" vector-effect="non-scaling-stroke" d="
  M 162.31 121.54
  A 1.60 1.60 0.0 0 0 160.71 119.94
  L 59.21 119.94
  A 1.60 1.60 0.0 0 0 57.61 121.54
  L 57.61 125.20
  A 1.60 1.60 0.0 0 0 59.21 126.80
  L 160.71 126.80
  A 1.60 1.60 0.0 0 0 162.31 125.20
  L 162.31 121.54"
/>
<path stroke="#3b3b3c" stroke-opacity="0.996" vector-effect="non-scaling-stroke" d="
  M 162.52 139.57
  A 1.42 1.42 0.0 0 0 161.10 138.15
  L 73.58 138.15
  A 1.42 1.42 0.0 0 0 72.16 139.57
  L 72.16 143.47
  A 1.42 1.42 0.0 0 0 73.58 144.89
  L 161.10 144.89
  A 1.42 1.42 0.0 0 0 162.52 143.47
  L 162.52 139.57"
/>
<path stroke="#3b3b3c" stroke-opacity="0.996" vector-effect="non-scaling-stroke" d="
  M 161.92 155.90
  A 0.62 0.62 0.0 0 0 161.30 155.28
  L 96.82 155.28
  A 0.62 0.62 0.0 0 0 96.20 155.90
  L 96.20 161.56
  A 0.62 0.62 0.0 0 0 96.82 162.18
  L 161.30 162.18
  A 0.62 0.62 0.0 0 0 161.92 161.56
  L 161.92 155.90"
/>
</g>
<path fill="#2f2f30" fill-opacity="0.996" d="
  M 96.57 101.21
  Q 94.51 99.21 91.88 98.15
  C 89.86 97.32 88.57 96.56 87.72 94.85
  Q 85.58 90.57 83.19 83.32
  C 79.86 73.17 75.23 61.08 71.88 51.33
  Q 65.02 31.35 55.75 6.06
  A 2.46 2.45 -10.0 0 0 53.44 4.45
  L 42.54 4.45
  A 1.31 1.30 -79.6 0 0 41.32 5.30
  Q 34.57 23.39 31.13 33.53
  Q 29.40 38.62 28.81 40.03
  C 26.49 45.66 25.50 49.79 23.21 56.29
  Q 21.57 60.96 19.83 65.38
  Q 19.58 66.02 16.76 74.59
  Q 12.99 86.08 10.26 92.90
  Q 8.36 97.61 2.83 98.95
  A 1.39 1.38 -7.0 0 0 1.77 100.29
  L 1.77 103.96
  A 1.05 1.04 90.0 0 0 2.81 105.01
  L 32.73 105.01
  A 0.89 0.88 90.0 0 0 33.61 104.12
  L 33.61 100.57
  A 1.43 1.42 0.6 0 0 32.21 99.15
  Q 28.27 99.08 25.94 97.85
  Q 24.88 97.29 23.57 94.78
  Q 28.12 97.33 34.19 98.25
  A 1.54 1.53 -85.6 0 1 35.49 99.77
  L 35.49 105.95
  A 0.94 0.94 0.0 0 1 34.55 106.89
  L 1.69 106.89
  A 1.08 1.07 -0.0 0 1 0.61 105.82
  L 0.61 99.76
  A 2.00 1.99 -6.1 0 1 2.19 97.81
  L 6.19 96.94
  A 1.53 1.49 -74.6 0 0 7.03 96.45
  Q 8.07 95.22 8.63 93.63
  Q 33.15 23.08 38.51 7.99
  Q 39.32 5.70 40.26 3.53
  A 1.00 1.00 0.0 0 1 41.18 2.92
  L 55.95 2.92
  A 0.69 0.68 -9.5 0 1 56.60 3.38
  Q 71.87 46.14 88.20 93.07
  Q 89.26 96.11 93.82 97.43
  C 95.58 97.94 97.01 98.94 96.57 101.21
  Z"
/>
<path fill="#474647" fill-opacity="0.996" d="
  M 96.57 101.21
  L 96.82 105.92
  A 0.91 0.91 0.0 0 1 95.91 106.88
  L 58.74 106.88
  A 0.51 0.50 0.0 0 1 58.23 106.38
  L 58.23 99.53
  A 0.74 0.74 0.0 0 1 58.66 98.86
  Q 59.99 98.22 65.61 96.62
  Q 69.28 95.58 67.91 91.62
  Q 64.85 82.76 63.36 77.72
  A 2.31 2.29 -8.1 0 0 61.15 76.07
  L 31.11 76.07
  A 2.03 2.02 11.3 0 0 29.24 77.31
  Q 25.69 85.69 23.57 94.78
  Q 24.88 97.29 25.94 97.85
  Q 28.27 99.08 32.21 99.15
  A 1.43 1.42 0.6 0 1 33.61 100.57
  L 33.61 104.12
  A 0.89 0.88 -90.0 0 1 32.73 105.01
  L 2.81 105.01
  A 1.05 1.04 -90.0 0 1 1.77 103.96
  L 1.77 100.29
  A 1.39 1.38 -7.0 0 1 2.83 98.95
  Q 8.36 97.61 10.26 92.90
  Q 12.99 86.08 16.76 74.59
  Q 19.58 66.02 19.83 65.38
  Q 21.57 60.96 23.21 56.29
  C 25.50 49.79 26.49 45.66 28.81 40.03
  Q 29.40 38.62 31.13 33.53
  Q 34.57 23.39 41.32 5.30
  A 1.31 1.30 -79.6 0 1 42.54 4.45
  L 53.44 4.45
  A 2.46 2.45 -10.0 0 1 55.75 6.06
  Q 65.02 31.35 71.88 51.33
  C 75.23 61.08 79.86 73.17 83.19 83.32
  Q 85.58 90.57 87.72 94.85
  C 88.57 96.56 89.86 97.32 91.88 98.15
  Q 94.51 99.21 96.57 101.21
  Z
  M 57.77 64.05
  L 58.61 63.90
  A 0.61 0.61 0.0 0 0 59.07 63.10
  Q 51.69 42.15 47.05 27.74
  Q 46.84 27.07 46.23 26.85
  L 44.52 26.40
  A 0.67 0.67 0.0 0 0 43.69 26.94
  C 43.23 29.59 42.90 31.98 41.97 34.71
  Q 40.17 39.97 34.87 55.38
  Q 32.72 61.63 32.61 64.63
  A 0.77 0.76 13.0 0 0 33.07 65.36
  Q 34.98 66.18 37.04 66.24
  Q 46.89 66.51 57.12 65.79
  A 0.67 0.66 -65.9 0 0 57.43 65.67
  Q 58.07 65.17 57.77 64.05
  Z"
/>
<path fill="#2f2f30" fill-opacity="0.996" d="
  M 46.23 26.85
  L 33.72 63.07
  A 0.73 0.72 9.6 0 0 34.41 64.03
  L 57.77 64.05
  Q 58.07 65.17 57.43 65.67
  A 0.67 0.66 -65.9 0 1 57.12 65.79
  Q 46.89 66.51 37.04 66.24
  Q 34.98 66.18 33.07 65.36
  A 0.77 0.76 13.0 0 1 32.61 64.63
  Q 32.72 61.63 34.87 55.38
  Q 40.17 39.97 41.97 34.71
  C 42.90 31.98 43.23 29.59 43.69 26.94
  A 0.67 0.67 0.0 0 1 44.52 26.40
  L 46.23 26.85
  Z"
/>
<path fill="#2f2f30" fill-opacity="0.996" d="
  M 165.00 98.76
  L 165.00 103.43
  Q 158.49 108.26 150.21 105.84
  Q 145.58 104.49 142.51 99.22
  Q 143.82 98.50 144.60 99.71
  Q 147.64 104.41 152.45 104.79
  C 156.65 105.11 161.00 105.58 163.46 102.93
  Q 164.66 101.65 163.86 99.28
  A 1.04 1.03 -89.5 0 0 163.25 98.65
  C 161.21 97.84 158.25 98.06 156.76 96.72
  C 153.49 93.80 153.58 88.97 153.76 84.76
  C 154.06 77.68 153.92 73.24 154.00 61.80
  C 154.02 59.04 153.36 55.19 152.69 52.83
  C 151.20 47.64 148.12 45.25 143.20 42.58
  Q 141.13 41.46 136.76 41.07
  C 127.98 40.29 118.12 40.21 112.02 45.39
  Q 107.06 49.60 106.67 55.65
  A 4.02 4.01 -73.3 0 0 108.68 59.39
  L 112.32 61.50
  A 0.82 0.79 -35.0 0 0 112.88 61.59
  Q 116.13 60.96 117.53 59.07
  A 3.08 3.07 -18.3 0 0 117.97 58.20
  Q 119.53 53.33 121.07 51.54
  C 125.01 46.97 131.89 47.97 137.13 50.07
  A 1.42 1.38 84.2 0 1 137.82 50.65
  Q 140.60 55.14 140.03 60.44
  Q 139.78 50.80 131.31 49.38
  C 126.45 48.56 122.06 50.09 120.48 54.93
  C 118.93 59.67 117.30 64.57 111.02 62.77
  Q 106.18 61.39 105.42 56.35
  A 2.46 2.29 47.0 0 1 105.42 55.54
  L 106.02 51.73
  A 1.02 0.75 -36.2 0 1 106.09 51.51
  C 109.33 44.19 115.47 40.49 123.03 39.22
  Q 128.03 38.38 136.90 39.45
  C 146.22 40.58 153.44 46.46 154.90 55.74
  Q 155.20 57.70 155.23 65.92
  Q 155.27 76.90 155.36 87.99
  Q 155.39 92.40 156.97 94.59
  C 158.61 96.86 161.44 96.37 163.73 96.15
  A 0.73 0.73 0.0 0 1 164.51 96.70
  L 165.00 98.76
  Z"
/>
<path fill="#474647" fill-opacity="0.996" d="
  M 142.51 99.22
  Q 141.72 98.09 140.61 99.10
  Q 134.56 104.60 128.73 106.67
  Q 126.13 107.59 120.14 107.34
  Q 115.03 107.13 111.93 104.93
  C 106.70 101.23 103.80 95.88 103.93 89.42
  C 104.19 76.12 116.41 70.23 128.45 68.93
  A 2.80 2.66 29.7 0 0 129.18 68.75
  Q 130.93 68.08 134.25 67.97
  Q 136.33 67.90 139.30 66.88
  A 0.80 0.79 -8.7 0 0 139.83 66.16
  L 140.03 60.44
  Q 140.60 55.14 137.82 50.65
  A 1.42 1.38 84.2 0 0 137.13 50.07
  C 131.89 47.97 125.01 46.97 121.07 51.54
  Q 119.53 53.33 117.97 58.20
  A 3.08 3.07 -18.3 0 1 117.53 59.07
  Q 116.13 60.96 112.88 61.59
  A 0.82 0.79 -35.0 0 1 112.32 61.50
  L 108.68 59.39
  A 4.02 4.01 -73.3 0 1 106.67 55.65
  Q 107.06 49.60 112.02 45.39
  C 118.12 40.21 127.98 40.29 136.76 41.07
  Q 141.13 41.46 143.20 42.58
  C 148.12 45.25 151.20 47.64 152.69 52.83
  C 153.36 55.19 154.02 59.04 154.00 61.80
  C 153.92 73.24 154.06 77.68 153.76 84.76
  C 153.58 88.97 153.49 93.80 156.76 96.72
  C 158.25 98.06 161.21 97.84 163.25 98.65
  A 1.04 1.03 -89.5 0 1 163.86 99.28
  Q 164.66 101.65 163.46 102.93
  C 161.00 105.58 156.65 105.11 152.45 104.79
  Q 147.64 104.41 144.60 99.71
  Q 143.82 98.50 142.51 99.22
  Z
  M 140.02 76.28
  A 0.64 0.64 0.0 0 0 139.28 75.65
  Q 133.64 76.56 129.89 77.63
  C 123.30 79.50 118.90 82.86 119.86 90.00
  C 120.22 92.69 122.27 95.06 124.62 95.69
  Q 133.70 98.12 139.59 89.79
  A 2.41 2.34 63.3 0 0 140.02 88.42
  L 140.02 76.28
  Z"
/>
<path fill="#2f2f30" fill-opacity="0.996" d="
  M 163.98 127.29
  A 0.99 0.99 0.0 0 1 162.99 128.28
  L 57.07 128.28
  A 0.99 0.99 0.0 0 1 56.08 127.29
  L 56.08 119.21
  A 0.99 0.99 0.0 0 1 57.07 118.22
  L 162.99 118.22
  A 0.99 0.99 0.0 0 1 163.98 119.21
  L 163.98 127.29
  Z
  M 162.31 121.54
  A 1.60 1.60 0.0 0 0 160.71 119.94
  L 59.21 119.94
  A 1.60 1.60 0.0 0 0 57.61 121.54
  L 57.61 125.20
  A 1.60 1.60 0.0 0 0 59.21 126.80
  L 160.71 126.80
  A 1.60 1.60 0.0 0 0 162.31 125.20
  L 162.31 121.54
  Z"
/>
<rect fill="#474647" fill-opacity="0.996" x="57.61" y="119.94" width="104.70" height="6.86" rx="1.60"/>
<path fill="#2f2f30" fill-opacity="0.996" d="
  M 163.91 145.45
  A 0.76 0.76 0.0 0 1 163.15 146.21
  L 71.67 146.21
  A 0.76 0.76 0.0 0 1 70.91 145.45
  L 70.91 137.07
  A 0.76 0.76 0.0 0 1 71.67 136.31
  L 163.15 136.31
  A 0.76 0.76 0.0 0 1 163.91 137.07
  L 163.91 145.45
  Z
  M 162.52 139.57
  A 1.42 1.42 0.0 0 0 161.10 138.15
  L 73.58 138.15
  A 1.42 1.42 0.0 0 0 72.16 139.57
  L 72.16 143.47
  A 1.42 1.42 0.0 0 0 73.58 144.89
  L 161.10 144.89
  A 1.42 1.42 0.0 0 0 162.52 143.47
  L 162.52 139.57
  Z"
/>
<rect fill="#474647" fill-opacity="0.996" x="72.16" y="138.15" width="90.36" height="6.74" rx="1.42"/>
<path fill="#2f2f30" fill-opacity="0.996" d="
  M 163.67 162.98
  A 0.96 0.96 0.0 0 1 162.71 163.94
  L 96.23 163.94
  A 0.96 0.96 0.0 0 1 95.27 162.98
  L 95.27 154.62
  A 0.96 0.96 0.0 0 1 96.23 153.66
  L 162.71 153.66
  A 0.96 0.96 0.0 0 1 163.67 154.62
  L 163.67 162.98
  Z
  M 161.92 155.90
  A 0.62 0.62 0.0 0 0 161.30 155.28
  L 96.82 155.28
  A 0.62 0.62 0.0 0 0 96.20 155.90
  L 96.20 161.56
  A 0.62 0.62 0.0 0 0 96.82 162.18
  L 161.30 162.18
  A 0.62 0.62 0.0 0 0 161.92 161.56
  L 161.92 155.90
  Z"
/>
<rect fill="#474647" fill-opacity="0.996" x="96.20" y="155.28" width="65.72" height="6.90" rx="0.62"/>
</svg>
